<mxfile host="app.diagrams.net" modified="2022-04-10T02:57:02.388Z" agent="5.0 (Windows NT 10.0; Win64; x64) AppleWebKit/537.36 (KHTML, like Gecko) Chrome/100.0.4896.75 Safari/537.36" etag="pjmHBZfVoe6TbmUuP2ys" version="17.4.2" type="github">
  <diagram id="C2gG3lPaUjYdFsSE7ECr" name="Page-1">
    <mxGraphModel dx="-918" dy="1536" grid="1" gridSize="10" guides="1" tooltips="1" connect="1" arrows="1" fold="1" page="1" pageScale="1" pageWidth="850" pageHeight="1100" math="0" shadow="0">
      <root>
        <mxCell id="0" />
        <mxCell id="1" parent="0" />
        <mxCell id="TQTzzhm8wmnNG3Qn8nyk-273" value="" style="swimlane;startSize=20;horizontal=1;containerType=tree;strokeColor=none;swimlaneFillColor=default;gradientColor=none;" vertex="1" parent="1">
          <mxGeometry x="1750" y="-880" width="1690" height="1090" as="geometry" />
        </mxCell>
        <mxCell id="TQTzzhm8wmnNG3Qn8nyk-274" value="" style="edgeStyle=entityRelationEdgeStyle;startArrow=none;endArrow=none;segment=10;curved=1;rounded=0;" edge="1" parent="TQTzzhm8wmnNG3Qn8nyk-273" source="TQTzzhm8wmnNG3Qn8nyk-277" target="TQTzzhm8wmnNG3Qn8nyk-278">
          <mxGeometry relative="1" as="geometry" />
        </mxCell>
        <mxCell id="TQTzzhm8wmnNG3Qn8nyk-275" value="" style="edgeStyle=entityRelationEdgeStyle;startArrow=none;endArrow=none;segment=10;curved=1;rounded=0;" edge="1" parent="TQTzzhm8wmnNG3Qn8nyk-273" source="TQTzzhm8wmnNG3Qn8nyk-277" target="TQTzzhm8wmnNG3Qn8nyk-279">
          <mxGeometry relative="1" as="geometry" />
        </mxCell>
        <mxCell id="TQTzzhm8wmnNG3Qn8nyk-276" value="" style="edgeStyle=entityRelationEdgeStyle;startArrow=none;endArrow=none;segment=10;curved=1;rounded=0;" edge="1" parent="TQTzzhm8wmnNG3Qn8nyk-273" source="TQTzzhm8wmnNG3Qn8nyk-277" target="TQTzzhm8wmnNG3Qn8nyk-280">
          <mxGeometry relative="1" as="geometry" />
        </mxCell>
        <mxCell id="TQTzzhm8wmnNG3Qn8nyk-277" value="&lt;b&gt;formal method&lt;/b&gt;" style="ellipse;whiteSpace=wrap;html=1;align=center;treeFolding=1;treeMoving=1;newEdgeStyle={&quot;edgeStyle&quot;:&quot;entityRelationEdgeStyle&quot;,&quot;startArrow&quot;:&quot;none&quot;,&quot;endArrow&quot;:&quot;none&quot;,&quot;segment&quot;:10,&quot;curved&quot;:1};fillColor=#dae8fc;strokeColor=#6c8ebf;" vertex="1" parent="TQTzzhm8wmnNG3Qn8nyk-273">
          <mxGeometry x="660" y="420" width="120" height="50" as="geometry" />
        </mxCell>
        <mxCell id="TQTzzhm8wmnNG3Qn8nyk-278" value="Motivation" style="whiteSpace=wrap;html=1;rounded=1;arcSize=50;align=center;verticalAlign=middle;strokeWidth=1;autosize=1;spacing=4;treeFolding=1;treeMoving=1;newEdgeStyle={&quot;edgeStyle&quot;:&quot;entityRelationEdgeStyle&quot;,&quot;startArrow&quot;:&quot;none&quot;,&quot;endArrow&quot;:&quot;none&quot;,&quot;segment&quot;:10,&quot;curved&quot;:1};fillColor=#d5e8d4;strokeColor=#82b366;" vertex="1" parent="TQTzzhm8wmnNG3Qn8nyk-273">
          <mxGeometry x="860" y="390" width="100" height="30" as="geometry" />
        </mxCell>
        <mxCell id="TQTzzhm8wmnNG3Qn8nyk-279" value="Topic" style="whiteSpace=wrap;html=1;rounded=1;arcSize=50;align=center;verticalAlign=middle;strokeWidth=1;autosize=1;spacing=4;treeFolding=1;treeMoving=1;newEdgeStyle={&quot;edgeStyle&quot;:&quot;entityRelationEdgeStyle&quot;,&quot;startArrow&quot;:&quot;none&quot;,&quot;endArrow&quot;:&quot;none&quot;,&quot;segment&quot;:10,&quot;curved&quot;:1};" vertex="1" parent="TQTzzhm8wmnNG3Qn8nyk-273">
          <mxGeometry x="470" y="400" width="80" height="20" as="geometry" />
        </mxCell>
        <mxCell id="TQTzzhm8wmnNG3Qn8nyk-280" value="Branch" style="whiteSpace=wrap;html=1;shape=partialRectangle;top=0;left=0;bottom=1;right=0;points=[[0,1],[1,1]];fillColor=none;align=center;verticalAlign=bottom;routingCenterY=0.5;snapToPoint=1;autosize=1;treeFolding=1;treeMoving=1;newEdgeStyle={&quot;edgeStyle&quot;:&quot;entityRelationEdgeStyle&quot;,&quot;startArrow&quot;:&quot;none&quot;,&quot;endArrow&quot;:&quot;none&quot;,&quot;segment&quot;:10,&quot;curved&quot;:1};" vertex="1" parent="TQTzzhm8wmnNG3Qn8nyk-273">
          <mxGeometry x="430" y="510" width="72" height="26" as="geometry" />
        </mxCell>
        <mxCell id="TQTzzhm8wmnNG3Qn8nyk-281" value="" style="edgeStyle=entityRelationEdgeStyle;startArrow=none;endArrow=none;segment=10;curved=1;rounded=0;" edge="1" parent="TQTzzhm8wmnNG3Qn8nyk-273" source="TQTzzhm8wmnNG3Qn8nyk-278" target="TQTzzhm8wmnNG3Qn8nyk-282">
          <mxGeometry relative="1" as="geometry">
            <mxPoint x="620" y="379" as="sourcePoint" />
          </mxGeometry>
        </mxCell>
        <mxCell id="TQTzzhm8wmnNG3Qn8nyk-282" value="While the avionics community usually thinks of formal methods as tools for software development, they are equally applicable to hardware design and a combination of hardware/software design" style="whiteSpace=wrap;html=1;shape=partialRectangle;top=0;left=0;bottom=1;right=0;points=[[0,1],[1,1]];fillColor=default;align=center;verticalAlign=bottom;routingCenterY=0.5;snapToPoint=1;recursiveResize=0;autosize=1;treeFolding=1;treeMoving=1;newEdgeStyle={&quot;edgeStyle&quot;:&quot;entityRelationEdgeStyle&quot;,&quot;startArrow&quot;:&quot;none&quot;,&quot;endArrow&quot;:&quot;none&quot;,&quot;segment&quot;:10,&quot;curved&quot;:1};fontFamily=Helvetica;fontSize=12;fontColor=default;strokeColor=default;strokeWidth=1;" vertex="1" parent="TQTzzhm8wmnNG3Qn8nyk-273">
          <mxGeometry x="1110" y="240" width="280" height="90" as="geometry" />
        </mxCell>
        <mxCell id="TQTzzhm8wmnNG3Qn8nyk-285" value="Author:&amp;nbsp;Kevin Driscoll" style="whiteSpace=wrap;html=1;shape=partialRectangle;top=0;left=0;bottom=1;right=0;points=[[0,1],[1,1]];fillColor=none;align=center;verticalAlign=bottom;routingCenterY=0.5;snapToPoint=1;autosize=1;treeFolding=1;treeMoving=1;newEdgeStyle={&quot;edgeStyle&quot;:&quot;entityRelationEdgeStyle&quot;,&quot;startArrow&quot;:&quot;none&quot;,&quot;endArrow&quot;:&quot;none&quot;,&quot;segment&quot;:10,&quot;curved&quot;:1};" vertex="1" parent="TQTzzhm8wmnNG3Qn8nyk-273">
          <mxGeometry x="460" y="330" width="179" height="20" as="geometry" />
        </mxCell>
        <mxCell id="TQTzzhm8wmnNG3Qn8nyk-286" value="" style="edgeStyle=entityRelationEdgeStyle;startArrow=none;endArrow=none;segment=10;curved=1;rounded=0;exitX=0.5;exitY=0;exitDx=0;exitDy=0;" edge="1" parent="TQTzzhm8wmnNG3Qn8nyk-273" source="TQTzzhm8wmnNG3Qn8nyk-277" target="TQTzzhm8wmnNG3Qn8nyk-285">
          <mxGeometry relative="1" as="geometry">
            <mxPoint x="370" y="170" as="sourcePoint" />
          </mxGeometry>
        </mxCell>
        <mxCell id="TQTzzhm8wmnNG3Qn8nyk-289" value="" style="edgeStyle=entityRelationEdgeStyle;startArrow=none;endArrow=none;segment=10;curved=1;rounded=0;" edge="1" parent="TQTzzhm8wmnNG3Qn8nyk-273" source="TQTzzhm8wmnNG3Qn8nyk-277" target="TQTzzhm8wmnNG3Qn8nyk-290">
          <mxGeometry relative="1" as="geometry">
            <mxPoint x="590" y="309" as="sourcePoint" />
          </mxGeometry>
        </mxCell>
        <mxCell id="TQTzzhm8wmnNG3Qn8nyk-290" value="Safety Regulations" style="whiteSpace=wrap;html=1;rounded=1;arcSize=50;align=center;verticalAlign=middle;strokeWidth=1;autosize=1;spacing=4;treeFolding=1;treeMoving=1;newEdgeStyle={&quot;edgeStyle&quot;:&quot;entityRelationEdgeStyle&quot;,&quot;startArrow&quot;:&quot;none&quot;,&quot;endArrow&quot;:&quot;none&quot;,&quot;segment&quot;:10,&quot;curved&quot;:1};fillColor=#ffe6cc;strokeColor=#d79b00;" vertex="1" parent="TQTzzhm8wmnNG3Qn8nyk-273">
          <mxGeometry x="870" y="470" width="90" height="35" as="geometry" />
        </mxCell>
        <mxCell id="TQTzzhm8wmnNG3Qn8nyk-291" value="" style="edgeStyle=entityRelationEdgeStyle;startArrow=none;endArrow=none;segment=10;curved=1;rounded=0;" edge="1" parent="TQTzzhm8wmnNG3Qn8nyk-273" source="TQTzzhm8wmnNG3Qn8nyk-290" target="TQTzzhm8wmnNG3Qn8nyk-292">
          <mxGeometry relative="1" as="geometry">
            <mxPoint x="750" y="387.5" as="sourcePoint" />
          </mxGeometry>
        </mxCell>
        <mxCell id="TQTzzhm8wmnNG3Qn8nyk-292" value="RTCA DO-333" style="whiteSpace=wrap;html=1;shape=partialRectangle;top=0;left=0;bottom=1;right=0;points=[[0,1],[1,1]];align=center;verticalAlign=bottom;routingCenterY=0.5;snapToPoint=1;recursiveResize=0;autosize=1;treeFolding=1;treeMoving=1;newEdgeStyle={&quot;edgeStyle&quot;:&quot;entityRelationEdgeStyle&quot;,&quot;startArrow&quot;:&quot;none&quot;,&quot;endArrow&quot;:&quot;none&quot;,&quot;segment&quot;:10,&quot;curved&quot;:1};fontFamily=Helvetica;fontSize=12;strokeWidth=1;" vertex="1" parent="TQTzzhm8wmnNG3Qn8nyk-273">
          <mxGeometry x="1120" y="590" width="110" height="20" as="geometry" />
        </mxCell>
        <mxCell id="TQTzzhm8wmnNG3Qn8nyk-293" value="AC 20-115C -Airborne Software Assurance" style="whiteSpace=wrap;html=1;shape=partialRectangle;top=0;left=0;bottom=1;right=0;points=[[0,1],[1,1]];align=center;verticalAlign=bottom;routingCenterY=0.5;snapToPoint=1;recursiveResize=0;autosize=1;treeFolding=1;treeMoving=1;newEdgeStyle={&quot;edgeStyle&quot;:&quot;entityRelationEdgeStyle&quot;,&quot;startArrow&quot;:&quot;none&quot;,&quot;endArrow&quot;:&quot;none&quot;,&quot;segment&quot;:10,&quot;curved&quot;:1};fontFamily=Helvetica;fontSize=12;strokeWidth=1;" vertex="1" parent="TQTzzhm8wmnNG3Qn8nyk-273">
          <mxGeometry x="1110" y="510" width="260" height="20" as="geometry" />
        </mxCell>
        <mxCell id="TQTzzhm8wmnNG3Qn8nyk-294" value="RTCA DO-331" style="whiteSpace=wrap;html=1;shape=partialRectangle;top=0;left=0;bottom=1;right=0;points=[[0,1],[1,1]];align=center;verticalAlign=bottom;routingCenterY=0.5;snapToPoint=1;recursiveResize=0;autosize=1;treeFolding=1;treeMoving=1;newEdgeStyle={&quot;edgeStyle&quot;:&quot;entityRelationEdgeStyle&quot;,&quot;startArrow&quot;:&quot;none&quot;,&quot;endArrow&quot;:&quot;none&quot;,&quot;segment&quot;:10,&quot;curved&quot;:1};fontFamily=Helvetica;fontSize=12;strokeWidth=1;" vertex="1" parent="TQTzzhm8wmnNG3Qn8nyk-273">
          <mxGeometry x="1120" y="570" width="110" height="20" as="geometry" />
        </mxCell>
        <mxCell id="TQTzzhm8wmnNG3Qn8nyk-295" value="" style="edgeStyle=entityRelationEdgeStyle;startArrow=none;endArrow=none;segment=10;curved=1;rounded=0;" edge="1" parent="TQTzzhm8wmnNG3Qn8nyk-273" source="TQTzzhm8wmnNG3Qn8nyk-290" target="TQTzzhm8wmnNG3Qn8nyk-293">
          <mxGeometry relative="1" as="geometry">
            <mxPoint x="580" y="297.5" as="sourcePoint" />
            <mxPoint x="660" y="360" as="targetPoint" />
          </mxGeometry>
        </mxCell>
        <mxCell id="TQTzzhm8wmnNG3Qn8nyk-296" value="" style="edgeStyle=entityRelationEdgeStyle;startArrow=none;endArrow=none;segment=10;curved=1;rounded=0;" edge="1" parent="TQTzzhm8wmnNG3Qn8nyk-273" source="TQTzzhm8wmnNG3Qn8nyk-290" target="TQTzzhm8wmnNG3Qn8nyk-294">
          <mxGeometry relative="1" as="geometry">
            <mxPoint x="580" y="297.5" as="sourcePoint" />
            <mxPoint x="660" y="385" as="targetPoint" />
          </mxGeometry>
        </mxCell>
        <mxCell id="TQTzzhm8wmnNG3Qn8nyk-297" value="" style="edgeStyle=entityRelationEdgeStyle;startArrow=none;endArrow=none;segment=10;curved=1;rounded=0;" edge="1" parent="TQTzzhm8wmnNG3Qn8nyk-273" source="TQTzzhm8wmnNG3Qn8nyk-290" target="TQTzzhm8wmnNG3Qn8nyk-298">
          <mxGeometry relative="1" as="geometry">
            <mxPoint x="740" y="357.5" as="sourcePoint" />
            <mxPoint x="660" y="360" as="targetPoint" />
          </mxGeometry>
        </mxCell>
        <mxCell id="TQTzzhm8wmnNG3Qn8nyk-298" value="RTCA DO-178C" style="whiteSpace=wrap;html=1;shape=partialRectangle;top=0;left=0;bottom=1;right=0;points=[[0,1],[1,1]];align=center;verticalAlign=bottom;routingCenterY=0.5;snapToPoint=1;recursiveResize=0;autosize=1;treeFolding=1;treeMoving=1;newEdgeStyle={&quot;edgeStyle&quot;:&quot;entityRelationEdgeStyle&quot;,&quot;startArrow&quot;:&quot;none&quot;,&quot;endArrow&quot;:&quot;none&quot;,&quot;segment&quot;:10,&quot;curved&quot;:1};fontFamily=Helvetica;fontSize=12;strokeWidth=1;" vertex="1" parent="TQTzzhm8wmnNG3Qn8nyk-273">
          <mxGeometry x="1110" y="540" width="120" height="20" as="geometry" />
        </mxCell>
        <mxCell id="TQTzzhm8wmnNG3Qn8nyk-305" value="Formal methods are also applicable to high-level designs that have not yet been divided into hardware and software pieces" style="whiteSpace=wrap;html=1;shape=partialRectangle;top=0;left=0;bottom=1;right=0;points=[[0,1],[1,1]];fillColor=default;align=center;verticalAlign=bottom;routingCenterY=0.5;snapToPoint=1;recursiveResize=0;autosize=1;treeFolding=1;treeMoving=1;newEdgeStyle={&quot;edgeStyle&quot;:&quot;entityRelationEdgeStyle&quot;,&quot;startArrow&quot;:&quot;none&quot;,&quot;endArrow&quot;:&quot;none&quot;,&quot;segment&quot;:10,&quot;curved&quot;:1};fontFamily=Helvetica;fontSize=12;fontColor=default;strokeColor=default;strokeWidth=1;" vertex="1" parent="TQTzzhm8wmnNG3Qn8nyk-273">
          <mxGeometry x="1110" y="430" width="270" height="30" as="geometry" />
        </mxCell>
        <mxCell id="TQTzzhm8wmnNG3Qn8nyk-306" value="Many integrated circuit manufacturers use formal methods in their design processes" style="whiteSpace=wrap;html=1;shape=partialRectangle;top=0;left=0;bottom=1;right=0;points=[[0,1],[1,1]];fillColor=default;align=center;verticalAlign=bottom;routingCenterY=0.5;snapToPoint=1;recursiveResize=0;autosize=1;treeFolding=1;treeMoving=1;newEdgeStyle={&quot;edgeStyle&quot;:&quot;entityRelationEdgeStyle&quot;,&quot;startArrow&quot;:&quot;none&quot;,&quot;endArrow&quot;:&quot;none&quot;,&quot;segment&quot;:10,&quot;curved&quot;:1};fontFamily=Helvetica;fontSize=12;fontColor=default;strokeColor=default;strokeWidth=1;" vertex="1" parent="TQTzzhm8wmnNG3Qn8nyk-273">
          <mxGeometry x="1110" y="350" width="280" height="50" as="geometry" />
        </mxCell>
        <mxCell id="TQTzzhm8wmnNG3Qn8nyk-307" value="" style="edgeStyle=entityRelationEdgeStyle;startArrow=none;endArrow=none;segment=10;curved=1;rounded=0;" edge="1" parent="TQTzzhm8wmnNG3Qn8nyk-273" source="TQTzzhm8wmnNG3Qn8nyk-278" target="TQTzzhm8wmnNG3Qn8nyk-305">
          <mxGeometry relative="1" as="geometry">
            <mxPoint x="960" y="405" as="sourcePoint" />
            <mxPoint x="930.1428571428573" y="244.14285714285722" as="targetPoint" />
          </mxGeometry>
        </mxCell>
        <mxCell id="TQTzzhm8wmnNG3Qn8nyk-308" value="" style="edgeStyle=entityRelationEdgeStyle;startArrow=none;endArrow=none;segment=10;curved=1;rounded=0;" edge="1" parent="TQTzzhm8wmnNG3Qn8nyk-273" source="TQTzzhm8wmnNG3Qn8nyk-278" target="TQTzzhm8wmnNG3Qn8nyk-306">
          <mxGeometry relative="1" as="geometry">
            <mxPoint x="960" y="405" as="sourcePoint" />
            <mxPoint x="930.1428571428573" y="178.42857142857144" as="targetPoint" />
          </mxGeometry>
        </mxCell>
      </root>
    </mxGraphModel>
  </diagram>
</mxfile>
